<?xml version="1.0" encoding="UTF-8"?>
<svg id="Layer_1" data-name="Layer 1" xmlns="http://www.w3.org/2000/svg" xmlns:xlink="http://www.w3.org/1999/xlink" viewBox="0 0 178.78 243.95">
  <defs>
    <style>
      .cls-1 {
        fill: url(#linear-gradient-5);
      }

      .cls-2 {
        fill: url(#linear-gradient-4);
      }

      .cls-3 {
        fill: url(#linear-gradient-3);
      }

      .cls-4 {
        fill: url(#linear-gradient-2);
      }

      .cls-5 {
        fill: url(#linear-gradient);
      }
    </style>
    <linearGradient id="linear-gradient" x1="33.98" y1="124.52" x2="6.39" y2="-47.78" gradientUnits="userSpaceOnUse">
      <stop offset="0" stop-color="#192f7e"/>
      <stop offset=".19" stop-color="#2962a1"/>
      <stop offset=".39" stop-color="#3992c2"/>
      <stop offset=".56" stop-color="#44b5da"/>
      <stop offset=".71" stop-color="#4bcbe8"/>
      <stop offset=".8" stop-color="#4ed3ee"/>
    </linearGradient>
    <linearGradient id="linear-gradient-2" x1="21.33" y1="127.78" x2="31.73" y2="274.74" gradientUnits="userSpaceOnUse">
      <stop offset=".02" stop-color="#2b3c9b"/>
      <stop offset=".22" stop-color="#3957a9"/>
      <stop offset=".53" stop-color="#4b79ba"/>
      <stop offset=".77" stop-color="#568fc5"/>
      <stop offset=".94" stop-color="#5b97ca"/>
    </linearGradient>
    <linearGradient id="linear-gradient-3" x1="145.36" y1="116.16" x2="166.5" y2="269.59" gradientUnits="userSpaceOnUse">
      <stop offset=".1" stop-color="#191b86"/>
      <stop offset=".17" stop-color="#1b2089"/>
      <stop offset=".25" stop-color="#243193"/>
      <stop offset=".34" stop-color="#3049a2"/>
      <stop offset=".44" stop-color="#324ea4"/>
      <stop offset=".56" stop-color="#385dac"/>
      <stop offset=".69" stop-color="#4277b9"/>
      <stop offset=".83" stop-color="#4f9acc"/>
      <stop offset=".98" stop-color="#61c7e3"/>
      <stop offset="1" stop-color="#64cee7"/>
    </linearGradient>
    <linearGradient id="linear-gradient-4" x1="143.38" y1="104.71" x2="163.68" y2="-19.45" gradientUnits="userSpaceOnUse">
      <stop offset="0" stop-color="#191b86"/>
      <stop offset=".18" stop-color="#1a1e87"/>
      <stop offset=".33" stop-color="#1e288d"/>
      <stop offset=".47" stop-color="#253996"/>
      <stop offset=".61" stop-color="#3052a3"/>
      <stop offset=".73" stop-color="#3d71b4"/>
      <stop offset=".86" stop-color="#4d97c9"/>
      <stop offset=".98" stop-color="#60c4e1"/>
      <stop offset="1" stop-color="#64cee7"/>
    </linearGradient>
    <linearGradient id="linear-gradient-5" x1="-21.24" y1="122.19" x2="222.46" y2="122.19" gradientUnits="userSpaceOnUse">
      <stop offset="0" stop-color="#191b86"/>
      <stop offset=".07" stop-color="#1b2089"/>
      <stop offset=".16" stop-color="#243193"/>
      <stop offset=".24" stop-color="#3049a2"/>
      <stop offset=".33" stop-color="#3454a7"/>
      <stop offset=".49" stop-color="#4072b7"/>
      <stop offset=".69" stop-color="#53a3d0"/>
      <stop offset=".85" stop-color="#64cee7"/>
    </linearGradient>
  </defs>
  <path class="cls-5" d="M1.86,115.28v-17.83l.02-67.46c0-2.78.33-5.57,1.18-8.23C5.9,12.79,13.06,5.76,22.99,4.61c12.97-1.5,24.43,8.75,25.83,21.42.09.82.1,1.65.1,2.48l-.05,59.28c0,2.56-2.08,4.63-4.63,4.62h-5.06c-15.94,0-30.26,8.88-37.32,22.87Z"/>
  <path class="cls-4" d="M39.18,151.01h9.66s-.05,66.56-.05,66.56c0,5.01-1.37,9.99-4.27,14.09-11.15,15.8-37.61,12.34-42.13-9.3-.41-1.99-.56-4.02-.56-6.03v-20.91c0-7.33.95-14.64,2.8-21.73h0c5.68-13.58,19.54-22.68,34.55-22.68Z"/>
  <path class="cls-3" d="M176.89,129.93v16.55s-.06,71.08-.06,71.08c0,5.01-1.38,9.99-4.27,14.09-11.16,15.8-37.62,12.34-42.14-9.3-.41-1.99-.55-4.02-.55-6.03v-61.61c0-2,1.64-3.63,3.64-3.63h6.98c15.27,0,29.06-8.15,36.4-21.15Z"/>
  <path class="cls-2" d="M176.95,26.55l-.03,32.5c0,3.68-.79,7.32-2.3,10.68h0c-5.72,13.83-19.12,22.76-34.14,22.76h-10.59s0-64.45,0-64.45c0-2.78.33-5.57,1.18-8.23,2.85-8.98,10.01-16,19.93-17.16,12.97-1.5,24.44,8.75,25.83,21.42.09.82.1,1.65.1,2.48Z"/>
  <path class="cls-1" d="M176.92,77.18l-.02,21.3v16c-.46,2.75-1.22,5.43-2.29,8-5.72,13.81-19.11,22.73-34.12,22.73l-101.31-.08c-15.59,0-30.09,8.72-37.34,22.07v-21.8s0-16.11,0-16.11c.51-2.07,1.43-4.14,2.31-6.18.31-.71.62-1.4.9-2.09,5.71-13.81,19.1-22.73,34.12-22.73h9.69l81.03.07h10.59c15.3,0,29.11-8.18,36.43-21.18Z"/>
</svg>